<?xml version="1.0" encoding="UTF-8"?>
<svg id="svg5919" xmlns="http://www.w3.org/2000/svg" xmlns:xlink="http://www.w3.org/1999/xlink" viewBox="0 0 2010.08 188.43">
  <defs>
    <style>
      .cls-1 {
        fill: url(#linear-gradient);
      }

      .cls-1, .cls-2, .cls-3 {
        stroke-width: 0px;
      }

      .cls-2 {
        fill: #35a7cd;
      }

      .cls-3 {
        fill: #fff;
      }
    </style>
    <linearGradient id="linear-gradient" x1="-200.4" y1="1166.57" x2="7.14" y2="1374.12" gradientTransform="translate(110.32 -204.62) scale(.24)" gradientUnits="userSpaceOnUse">
      <stop offset="0" stop-color="#36a7cd"/>
      <stop offset="1" stop-color="#36a7cd" stop-opacity="0"/>
    </linearGradient>
  </defs>
  <g id="g5927">
    <g id="g5939">
      <path id="path5941" class="cls-3" d="M237.28,44.22c3.45,0,4.76,2.3,4.76,4.02v96.54h-8.37c-2.79,0-3.28-1.44-3.44-2.16V44.22h7.06Z"/>
    </g>
    <g id="g5943">
      <path id="path5945" class="cls-3" d="M345.26,144.78h-5.42c-6.4,0-7.38-4.45-7.88-6.47l-12.64-49.71v56.17h-11.82V44.22h5.42c6.56,0,7.71,2.73,8.37,5.6l12.14,52.29v-57.89h11.82v100.56Z"/>
    </g>
    <g id="g5947">
      <path id="path5949" class="cls-3" d="M547.12,134.58c-1.31,2.58-3.28,6.6-3.78,7.47-.82,1.29-2.62,2.73-6.4,2.73h-28.23V44.22h8.21c1.97.14,3.61,1.44,3.61,3.16v87.2h26.59Z"/>
    </g>
    <g id="g5951">
      <path id="path5953" class="cls-3" d="M594.71,59.01l11.82-14.79v86.91c0,3.01,2.63,5.46,6.07,5.46h1.81c3.45,0,6.23-2.44,6.23-5.46V44.22l11.82,14.79v73.99c0,6.9-6.4,12.07-14.11,12.21v.15h-9.03c-8.04,0-14.61-5.31-14.61-12.36V59.01Z"/>
    </g>
    <g id="g5955">
      <path id="path5957" class="cls-3" d="M829.39,144.78h-5.42c-6.4,0-7.39-4.45-7.88-6.47l-12.63-49.71v56.17h-11.82V44.22h5.42c6.57,0,7.71,2.73,8.37,5.6l12.14,52.29v-57.89h11.82v100.56Z"/>
    </g>
    <g id="g5959">
      <path id="path5961" class="cls-3" d="M927.37,133c0,6.9-6.24,12.5-14.11,12.79h-7.22c-8.21,0-14.77-5.75-14.77-12.79V56c0-7.04,6.56-12.78,14.77-12.78h7.22c7.87.14,14.11,5.89,14.11,12.78v15.37c0,3.3-1.64,4.89-3.12,5.46l-8.53,3.45v-22.55c0-3.02-2.79-5.46-6.4-5.46s-6.24,2.44-6.24,5.46v73.41c0,3.16,2.79,5.6,6.24,5.6s6.4-2.44,6.4-5.6v-13.51c0-3.3,1.64-4.88,3.12-5.6.99-.43,5.58-2.16,8.54-3.31v24.28Z"/>
    </g>
    <g id="g5963">
      <path id="path5965" class="cls-3" d="M425.51,54.57h13.13c3.77,0,5.41-1.58,6.23-2.88.49-.86,2.63-4.88,3.78-7.47h-34.14c-1.97,0-3.45,1.44-3.45,3.02v97.54h8.21c1.81,0,3.45-1.29,3.45-3.02v-40.65c0-1.44,1.31-2.44,2.95-2.44h7.88c3.78,0,5.42-1.58,6.23-2.87l3.94-7.47h-21.01v-33.75h2.79Z"/>
    </g>
    <g id="g5967">
      <path id="path5969" class="cls-3" d="M713.36,54.57h9.52c3.77,0,5.57-1.58,6.23-2.88l3.94-7.47h-30.69c-1.97,0-3.45,1.29-3.61,2.87v7.47h14.6Z"/>
    </g>
    <g id="g5971">
      <path id="path5973" class="cls-3" d="M713.36,97.23h4.92c3.78,0,5.42-1.43,6.24-2.73.41-.72,1.84-3.7,3.06-6.18h-28.82v8.91h14.6Z"/>
    </g>
    <g id="g5975">
      <path id="path5977" class="cls-3" d="M724.13,134.58h-25.37v10.2h26.26c3.77,0,5.58-1.44,6.4-2.73.49-.87,2.46-4.89,3.78-7.47h-11.07Z"/>
    </g>
    <g id="g5979">
      <path id="path5981" class="cls-3" d="M1008.76,54.57h9.52c3.78,0,5.58-1.58,6.24-2.88l3.94-7.47h-30.69c-1.97,0-3.45,1.29-3.61,2.87v7.47h14.61Z"/>
    </g>
    <g id="g5983">
      <path id="path5985" class="cls-3" d="M1008.76,97.23h4.92c3.77,0,5.41-1.43,6.23-2.73.41-.72,1.84-3.7,3.06-6.18h-28.83v8.91h14.61Z"/>
    </g>
    <g id="g5987">
      <path id="path5989" class="cls-3" d="M1024.84,134.58h-30.69v10.2h26.26c3.77,0,5.58-1.44,6.4-2.73.5-.87,2.46-4.89,3.78-7.47h-5.75Z"/>
    </g>
    <g id="g845">
      <path id="path847" class="cls-3" d="M144.21,22.11l-20.04-8.55h-20.01l12.92,5.56-4.1,2.99,4.1,2.99-12.92,5.56h20.01l20.04-8.54Z"/>
    </g>
    <g id="g857">
      <path id="path859" class="cls-3" d="M144.21,94.21c0,27.61-22.38,49.99-49.99,49.99V44.22c27.61,0,49.99,22.38,49.99,49.99"/>
    </g>
    <g id="g861">
      <path id="path863" class="cls-3" d="M93.64,170.22c-41.91,0-76.01-34.1-76.01-76S51.74,18.21,93.64,18.21c.19,0,.38.03.58.06V0C42.18,0,0,42.18,0,94.21s42.18,94.22,94.22,94.22v-18.27c-.19.03-.38.06-.58.06"/>
    </g>
    <path id="path867" class="cls-1" d="M44.23,94.21c0-27.61,22.38-49.99,49.99-49.99v-18.25c-.19.03-.38.06-.58.06-37.6,0-68.19,30.59-68.19,68.18s30.59,68.18,68.19,68.18c.19,0,.38.03.58.06v-18.25c-27.61,0-49.99-22.38-49.99-49.99"/>
  </g>
  <g>
    <g>
      <path class="cls-2" d="M1237.07,131.5c-2.09,0-3.13-1.04-3.13-3.13V58.43c0-2.09,1.04-3.13,3.13-3.13h27.67c6.74,0,11.83,1.73,15.28,5.2,3.45,3.47,5.17,8.57,5.17,15.31v3.55c0,6.7-1.72,11.79-5.17,15.25-3.45,3.47-8.54,5.2-15.28,5.2h-24.59v28.56c0,2.09-1.03,3.13-3.07,3.13ZM1240.15,93.61h24.59c4.97,0,8.58-1.13,10.85-3.4,2.27-2.27,3.4-5.88,3.4-10.85v-3.55c0-5-1.13-8.64-3.4-10.91-2.27-2.27-5.88-3.4-10.85-3.4h-24.59v32.1Z"/>
      <path class="cls-2" d="M1351.77,131.62c-.87.51-1.66.69-2.37.53-.71-.16-1.34-.65-1.89-1.48l-19.39-30.86h-21.7v28.56c0,2.09-1.03,3.13-3.07,3.13s-3.13-1.04-3.13-3.13V58.43c0-2.09,1.04-3.13,3.13-3.13h27.67c6.74,0,11.83,1.73,15.28,5.2,3.45,3.47,5.17,8.57,5.17,15.31v3.55c0,5.95-1.36,10.62-4.08,14.01-2.72,3.39-6.74,5.46-12.06,6.21l17.44,27.79c1.1,1.81.77,3.23-1,4.26ZM1306.42,93.61h24.59c4.97,0,8.58-1.13,10.85-3.4,2.27-2.27,3.4-5.88,3.4-10.85v-3.55c0-5-1.13-8.64-3.4-10.91-2.27-2.27-5.88-3.4-10.85-3.4h-24.59v32.1Z"/>
      <path class="cls-2" d="M1373.46,131.5c-2.09,0-3.13-1.04-3.13-3.13V58.43c0-2.09,1.04-3.13,3.13-3.13h44.28c2.09,0,3.13,1.04,3.13,3.13s-1.04,3.07-3.13,3.07h-41.21v28.32h27.25c2.09,0,3.13,1.03,3.13,3.07s-1.04,3.13-3.13,3.13h-27.25v29.26h41.21c2.09,0,3.13,1.03,3.13,3.07s-1.04,3.13-3.13,3.13h-44.28Z"/>
      <path class="cls-2" d="M1437.2,102.47c-.79,0-1.47-.29-2.04-.86s-.86-1.25-.86-2.04c0-.83.29-1.52.86-2.07.57-.55,1.25-.83,2.04-.83h32.63c.83,0,1.52.28,2.07.83.55.55.83,1.24.83,2.07s-.28,1.47-.83,2.04-1.24.86-2.07.86h-32.63Z"/>
      <path class="cls-2" d="M1544.03,131.62c-.87.51-1.66.69-2.37.53-.71-.16-1.34-.65-1.89-1.48l-19.39-30.86h-21.7v28.56c0,2.09-1.03,3.13-3.07,3.13s-3.13-1.04-3.13-3.13V58.43c0-2.09,1.04-3.13,3.13-3.13h27.67c6.74,0,11.83,1.73,15.28,5.2,3.45,3.47,5.17,8.57,5.17,15.31v3.55c0,5.95-1.36,10.62-4.08,14.01-2.72,3.39-6.74,5.46-12.06,6.21l17.44,27.79c1.1,1.81.77,3.23-1,4.26ZM1498.68,93.61h24.59c4.97,0,8.58-1.13,10.85-3.4,2.27-2.27,3.4-5.88,3.4-10.85v-3.55c0-5-1.13-8.64-3.4-10.91-2.27-2.27-5.88-3.4-10.85-3.4h-24.59v32.1Z"/>
      <path class="cls-2" d="M1565.72,131.5c-2.09,0-3.13-1.04-3.13-3.13V58.43c0-2.09,1.04-3.13,3.13-3.13h44.28c2.09,0,3.13,1.04,3.13,3.13s-1.04,3.07-3.13,3.07h-41.21v28.32h27.25c2.09,0,3.13,1.03,3.13,3.07s-1.04,3.13-3.13,3.13h-27.25v29.26h41.21c2.09,0,3.13,1.03,3.13,3.07s-1.04,3.13-3.13,3.13h-44.28Z"/>
      <path class="cls-2" d="M1632.06,131.5c-2.09,0-3.13-1.04-3.13-3.13V58.43c0-2.09,1.04-3.13,3.13-3.13s3.07,1.04,3.07,3.13v66.87h35.95c2.09,0,3.13,1.03,3.13,3.07s-1.04,3.13-3.13,3.13h-39.02Z"/>
      <path class="cls-2" d="M1691.18,131.5c-2.09,0-3.13-1.04-3.13-3.13V58.43c0-2.09,1.04-3.13,3.13-3.13h44.28c2.09,0,3.13,1.04,3.13,3.13s-1.04,3.07-3.13,3.07h-41.21v28.32h27.25c2.09,0,3.13,1.03,3.13,3.07s-1.04,3.13-3.13,3.13h-27.25v29.26h41.21c2.09,0,3.13,1.03,3.13,3.07s-1.04,3.13-3.13,3.13h-44.28Z"/>
      <path class="cls-2" d="M1748.41,131.21c-1.89-.83-2.46-2.21-1.71-4.14l29.32-69.35c.63-1.62,1.79-2.42,3.49-2.42h.35c1.62.04,2.76.85,3.43,2.42l29.33,69.35c.79,1.93.24,3.31-1.66,4.14-1.93.79-3.27.24-4.02-1.66l-7.86-18.62h-38.72l-7.86,18.62c-.79,1.89-2.15,2.44-4.08,1.66ZM1762.89,104.72h33.58l-16.79-39.61-16.79,39.61Z"/>
      <path class="cls-2" d="M1843.06,131.38c-7.06,0-12.29-1.57-15.7-4.7-3.41-3.13-5.23-8.07-5.47-14.81-.04-.95.23-1.71.8-2.28.57-.57,1.33-.86,2.28-.86s1.69.28,2.25.83c.55.55.87,1.3.95,2.25.16,4.97,1.34,8.43,3.55,10.41,2.21,1.97,5.99,2.96,11.35,2.96h17.03c5.6,0,9.49-1.09,11.68-3.28s3.28-6.04,3.28-11.56-1.09-9.49-3.28-11.68-6.08-3.28-11.68-3.28h-16.2c-6.94,0-12.02-1.62-15.25-4.85-3.23-3.23-4.85-8.3-4.85-15.19s1.61-11.96,4.82-15.19c3.21-3.23,8.27-4.85,15.17-4.85h16.55c6.62,0,11.54,1.48,14.75,4.43,3.21,2.96,4.94,7.61,5.17,13.95.08.95-.17,1.71-.74,2.28-.57.57-1.35.86-2.33.86-.91,0-1.64-.28-2.19-.83-.55-.55-.87-1.3-.95-2.25-.16-4.53-1.26-7.71-3.31-9.52-2.05-1.81-5.52-2.72-10.41-2.72h-16.55c-5.16,0-8.75,1.02-10.76,3.04-2.01,2.03-3.01,5.63-3.01,10.79s1.01,8.76,3.04,10.79c2.03,2.03,5.65,3.04,10.85,3.04h16.2c7.33,0,12.69,1.71,16.08,5.11,3.39,3.41,5.08,8.76,5.08,16.05s-1.7,12.62-5.08,15.99c-3.39,3.37-8.75,5.05-16.08,5.05h-17.03Z"/>
      <path class="cls-2" d="M1904.9,131.5c-2.09,0-3.13-1.04-3.13-3.13V58.43c0-2.09,1.04-3.13,3.13-3.13h44.28c2.09,0,3.13,1.04,3.13,3.13s-1.04,3.07-3.13,3.07h-41.21v28.32h27.25c2.09,0,3.13,1.03,3.13,3.07s-1.04,3.13-3.13,3.13h-27.25v29.26h41.21c2.09,0,3.13,1.03,3.13,3.07s-1.04,3.13-3.13,3.13h-44.28Z"/>
    </g>
    <rect class="cls-2" x="1145.99" y="10.69" width="3.74" height="166.13"/>
  </g>
</svg>